<svg width="42" height="64" viewBox="0 0 42 64" fill="none" xmlns="http://www.w3.org/2000/svg">
<path d="M35 26H7C5.895 26 5 24.9558 5 23.6667V7.33333C5 6.04419 5.895 5 7 5H35C36.105 5 37 6.04419 37 7.33333V23.6667C37 24.9558 36.105 26 35 26Z" fill="#F2994A"/>
<path d="M5.51579 0.5H36.4835C39.0531 0.5 41.1448 2.59167 41.1448 5.16129V26.5953C41.1448 28.1856 40.7687 29.7814 40.057 31.2043L40.0568 31.2047C39.4186 32.4838 39.0803 33.9125 39.0803 35.3402V58.8387C39.0803 61.4083 36.9886 63.5 34.419 63.5H7.58029C5.01069 63.5 2.91899 61.4083 2.91899 58.8387V35.3402C2.91899 33.9136 2.58079 32.4838 1.94239 31.2055C1.23059 29.7804 0.854492 28.1855 0.854492 26.5953V5.16129C0.854492 2.59167 2.94619 0.5 5.51579 0.5ZM39.1036 30.7301L39.1037 30.7299C39.7421 29.4517 40.0803 28.0229 40.0803 26.5953V5.16129C40.0803 3.17799 38.4668 1.56452 36.4835 1.56452H5.51579C3.53249 1.56452 1.91899 3.17799 1.91899 5.16129V26.5953C1.91899 28.0229 2.25729 29.4517 2.89559 30.7299L2.89569 30.7301C3.60739 32.1541 3.98349 33.7499 3.98349 35.3402V58.8387C3.98349 60.822 5.59699 62.4355 7.58029 62.4355H34.419C36.4023 62.4355 38.0158 60.822 38.0158 58.8387V35.3402C38.0158 33.7499 38.3919 32.1541 39.1036 30.7301Z" fill="#322153" stroke="#322153"/>
<path d="M8.1133 57.8065V58.3065H8.6133H12.7444H13.2449L13.2444 57.806L13.2424 55.7415L13.2419 55.242H12.7424H8.6133H8.1133V55.742V57.8065ZM8.6133 54.1775H12.7424C13.6048 54.1775 14.3069 54.8795 14.3069 55.742V57.8065C14.3069 58.669 13.6048 59.371 12.7424 59.371H8.6133C7.7509 59.371 7.0488 58.669 7.0488 57.8065V55.742C7.0488 54.8795 7.7509 54.1775 8.6133 54.1775Z" fill="#322153" stroke="#322153"/>
<path d="M8.1133 49.5485V50.0485H8.6133H12.7444H13.2449L13.2444 49.548L13.2424 47.4835L13.2419 46.984H12.7424H8.6133H8.1133V47.484V49.5485ZM8.6133 45.9194H12.7424C13.6048 45.9194 14.3069 46.6215 14.3069 47.484V49.5485C14.3069 50.4109 13.6048 51.113 12.7424 51.113H8.6133C7.7509 51.113 7.0488 50.4109 7.0488 49.5485V47.484C7.0488 46.6215 7.7509 45.9194 8.6133 45.9194Z" fill="#322153" stroke="#322153"/>
<path d="M8.1133 41.2904V41.7904H8.6133H12.7444H13.2449L13.2444 41.2899L13.2424 39.2254L13.2419 38.7259H12.7424H8.6133H8.1133V39.2259V41.2904ZM8.6133 37.6614H12.7424C13.6048 37.6614 14.3069 38.3634 14.3069 39.2259V41.2904C14.3069 42.1529 13.6048 42.8549 12.7424 42.8549H8.6133C7.7509 42.8549 7.0488 42.1529 7.0488 41.2904V39.2259C7.0488 38.3634 7.7509 37.6614 8.6133 37.6614Z" fill="#322153" stroke="#322153"/>
<path d="M18.4356 57.8065V58.3065H18.9356H23.0667H23.5671L23.5667 57.806L23.5646 55.7415L23.5642 55.242H23.0646H18.9356H18.4356V55.742V57.8065ZM18.9356 54.1775H23.0646C23.9271 54.1775 24.6292 54.8795 24.6292 55.742V57.8065C24.6292 58.669 23.9271 59.371 23.0646 59.371H18.9356C18.0731 59.371 17.3711 58.669 17.3711 57.8065V55.742C17.3711 54.8795 18.0731 54.1775 18.9356 54.1775Z" fill="#322153" stroke="#322153"/>
<path d="M18.4356 49.5485V50.0485H18.9356H23.0667H23.5671L23.5667 49.548L23.5646 47.4835L23.5642 46.984H23.0646H18.9356H18.4356V47.484V49.5485ZM18.9356 45.9194H23.0646C23.9271 45.9194 24.6292 46.6215 24.6292 47.484V49.5485C24.6292 50.4109 23.9271 51.113 23.0646 51.113H18.9356C18.0731 51.113 17.3711 50.4109 17.3711 49.5485V47.484C17.3711 46.6215 18.0731 45.9194 18.9356 45.9194Z" fill="#322153" stroke="#322153"/>
<path d="M18.4356 41.2904V41.7904H18.9356H23.0667H23.5671L23.5667 41.2899L23.5646 39.2254L23.5642 38.7259H23.0646H18.9356H18.4356V39.2259V41.2904ZM18.9356 37.6614H23.0646C23.9271 37.6614 24.6292 38.3634 24.6292 39.2259V41.2904C24.6292 42.1529 23.9271 42.8549 23.0646 42.8549H18.9356C18.0731 42.8549 17.3711 42.1529 17.3711 41.2904V39.2259C17.3711 38.3634 18.0731 37.6614 18.9356 37.6614Z" fill="#322153" stroke="#322153"/>
<path d="M17.9034 29.4033H24.097C25.528 29.4033 26.6937 30.5691 26.6937 32.0001C26.6937 33.4311 25.528 34.5969 24.097 34.5969H17.9034C16.4724 34.5969 15.3066 33.4311 15.3066 32.0001C15.3066 30.5691 16.4724 29.4033 17.9034 29.4033ZM17.9034 33.5324H24.097C24.943 33.5324 25.6292 32.8445 25.6292 32.0001C25.6292 31.1557 24.943 30.4678 24.097 30.4678H17.9034C17.0574 30.4678 16.3712 31.1557 16.3712 32.0001C16.3712 32.8445 17.0574 33.5324 17.9034 33.5324Z" fill="#322153" stroke="#322153"/>
<path d="M28.7579 57.8065V58.3065H29.2579H33.3889H33.8894L33.8889 57.806L33.8869 55.7415L33.8864 55.242H33.3869H29.2579H28.7579V55.742V57.8065ZM29.2579 54.1775H33.3869C34.2494 54.1775 34.9514 54.8795 34.9514 55.742V57.8065C34.9514 58.669 34.2494 59.371 33.3869 59.371H29.2579C28.3954 59.371 27.6934 58.669 27.6934 57.8065V55.742C27.6934 54.8795 28.3954 54.1775 29.2579 54.1775Z" fill="#322153" stroke="#322153"/>
<path d="M28.7579 49.5485V50.0485H29.2579H33.3889H33.8894L33.8889 49.548L33.8869 47.4835L33.8864 46.984H33.3869H29.2579H28.7579V47.484V49.5485ZM29.2579 45.9194H33.3869C34.2494 45.9194 34.9514 46.6215 34.9514 47.484V49.5485C34.9514 50.4109 34.2494 51.113 33.3869 51.113H29.2579C28.3954 51.113 27.6934 50.4109 27.6934 49.5485V47.484C27.6934 46.6215 28.3954 45.9194 29.2579 45.9194Z" fill="#322153" stroke="#322153"/>
<path d="M28.7579 41.2904V41.7904H29.2579H33.3889H33.8894L33.8889 41.2899L33.8869 39.2254L33.8864 38.7259H33.3869H29.2579H28.7579V39.2259V41.2904ZM29.2579 37.6614H33.3869C34.2494 37.6614 34.9514 38.3634 34.9514 39.2259V41.2904C34.9514 42.1529 34.2494 42.8549 33.3869 42.8549H29.2579C28.3954 42.8549 27.6934 42.1529 27.6934 41.2904V39.2259C27.6934 38.3634 28.3954 37.6614 29.2579 37.6614Z" fill="#322153" stroke="#322153"/>
<path d="M31.3223 30.4678H30.8223V30.9678V33.0324V33.5324H31.3223H33.3868H33.8868V33.0324V30.9678V30.4678H33.3868H31.3223ZM34.9514 29.4033V34.5969H29.7578V29.4033H34.9514Z" fill="#322153" stroke="#322153"/>
<path d="M10.6779 33.5324H11.1779V33.0324V30.9678V30.4678H10.6779H8.6133H8.1133V30.9678V33.0324V33.5324H8.6133H10.6779ZM7.0488 29.4033H12.2424V34.5969H7.0488V29.4033Z" fill="#322153" stroke="#322153"/>
</svg>
